# Tiled2Unity generated file. Do not modify by hand.
# Wavefront file for 'level1remake_mesh_0002.obj'

# Vertices (Count = 212)
v -64 -1504 0
v -80 -1504 0
v -80 -1488 0
v -64 -1488 0
v -80 -1504 0
v -96 -1504 0
v -96 -1488 0
v -80 -1488 0
v -96 -1504 0
v -112 -1504 0
v -112 -1488 0
v -96 -1488 0
v -112 -1504 0
v -128 -1504 0
v -128 -1488 0
v -112 -1488 0
v -128 -1504 0
v -144 -1504 0
v -144 -1488 0
v -128 -1488 0
v -144 -1504 0
v -160 -1504 0
v -160 -1488 0
v -144 -1488 0
v -160 -1504 0
v -176 -1504 0
v -176 -1488 0
v -160 -1488 0
v -176 -1504 0
v -192 -1504 0
v -192 -1488 0
v -176 -1488 0
v -192 -1504 0
v -208 -1504 0
v -208 -1488 0
v -192 -1488 0
v -208 -1504 0
v -224 -1504 0
v -224 -1488 0
v -208 -1488 0
v -224 -1504 0
v -240 -1504 0
v -240 -1488 0
v -224 -1488 0
v -240 -1504 0
v -256 -1504 0
v -256 -1488 0
v -240 -1488 0
v -256 -1504 0
v -272 -1504 0
v -272 -1488 0
v -256 -1488 0
v -272 -1504 0
v -288 -1504 0
v -288 -1488 0
v -272 -1488 0
v -304 -1504 0
v -320 -1504 0
v -320 -1488 0
v -304 -1488 0
v -320 -1504 0
v -336 -1504 0
v -336 -1488 0
v -320 -1488 0
v -336 -1504 0
v -352 -1504 0
v -352 -1488 0
v -336 -1488 0
v -352 -1504 0
v -368 -1504 0
v -368 -1488 0
v -352 -1488 0
v -368 -1504 0
v -384 -1504 0
v -384 -1488 0
v -368 -1488 0
v -384 -1504 0
v -400 -1504 0
v -400 -1488 0
v -384 -1488 0
v -416 -1504 0
v -432 -1504 0
v -432 -1488 0
v -416 -1488 0
v -432 -1504 0
v -448 -1504 0
v -448 -1488 0
v -432 -1488 0
v -448 -1504 0
v -464 -1504 0
v -464 -1488 0
v -448 -1488 0
v -464 -1504 0
v -480 -1504 0
v -480 -1488 0
v -464 -1488 0
v -480 -1504 0
v -496 -1504 0
v -496 -1488 0
v -480 -1488 0
v -496 -1504 0
v -512 -1504 0
v -512 -1488 0
v -496 -1488 0
v -64 -1520 0
v -80 -1520 0
v -80 -1504 0
v -64 -1504 0
v -80 -1520 0
v -96 -1520 0
v -96 -1504 0
v -80 -1504 0
v -96 -1520 0
v -112 -1520 0
v -112 -1504 0
v -96 -1504 0
v -112 -1520 0
v -128 -1520 0
v -128 -1504 0
v -112 -1504 0
v -128 -1520 0
v -144 -1520 0
v -144 -1504 0
v -128 -1504 0
v -144 -1520 0
v -160 -1520 0
v -160 -1504 0
v -144 -1504 0
v -160 -1520 0
v -176 -1520 0
v -176 -1504 0
v -160 -1504 0
v -176 -1520 0
v -192 -1520 0
v -192 -1504 0
v -176 -1504 0
v -192 -1520 0
v -208 -1520 0
v -208 -1504 0
v -192 -1504 0
v -208 -1520 0
v -224 -1520 0
v -224 -1504 0
v -208 -1504 0
v -224 -1520 0
v -240 -1520 0
v -240 -1504 0
v -224 -1504 0
v -240 -1520 0
v -256 -1520 0
v -256 -1504 0
v -240 -1504 0
v -256 -1520 0
v -272 -1520 0
v -272 -1504 0
v -256 -1504 0
v -272 -1520 0
v -288 -1520 0
v -288 -1504 0
v -272 -1504 0
v -288 -1520 0
v -304 -1520 0
v -304 -1504 0
v -288 -1504 0
v -304 -1520 0
v -320 -1520 0
v -320 -1504 0
v -304 -1504 0
v -336 -1520 0
v -352 -1520 0
v -352 -1504 0
v -336 -1504 0
v -352 -1520 0
v -368 -1520 0
v -368 -1504 0
v -352 -1504 0
v -368 -1520 0
v -384 -1520 0
v -384 -1504 0
v -368 -1504 0
v -384 -1520 0
v -400 -1520 0
v -400 -1504 0
v -384 -1504 0
v -400 -1520 0
v -416 -1520 0
v -416 -1504 0
v -400 -1504 0
v -416 -1520 0
v -432 -1520 0
v -432 -1504 0
v -416 -1504 0
v -432 -1520 0
v -448 -1520 0
v -448 -1504 0
v -432 -1504 0
v -448 -1520 0
v -464 -1520 0
v -464 -1504 0
v -448 -1504 0
v -464 -1520 0
v -480 -1520 0
v -480 -1504 0
v -464 -1504 0
v -480 -1520 0
v -496 -1520 0
v -496 -1504 0
v -480 -1504 0
v -496 -1520 0
v -512 -1520 0
v -512 -1504 0
v -496 -1504 0

# Texture cooridinates (Count = 12)
vt 0.16 0.84
vt 0.24 0.84
vt 0.24 0.92
vt 0.16 0.92
vt 0.08 0.84
vt 0.08 0.92
vt 0.08 0.76
vt 0.16 0.76
vt 0.32 0.84
vt 0.32 0.92
vt 0.24 0.76
vt 0.32 0.76

# Normal
vn 0 0 -1

# Mesh description
g level1remake_mesh_0002

# Faces
f 1/1/1 2/2/1 3/3/1 4/4/1
f 5/5/1 6/1/1 7/4/1 8/6/1
f 9/1/1 10/2/1 11/3/1 12/4/1
f 13/7/1 14/8/1 15/1/1 16/5/1
f 17/1/1 18/2/1 19/3/1 20/4/1
f 21/5/1 22/1/1 23/4/1 24/6/1
f 25/5/1 26/1/1 27/4/1 28/6/1
f 29/1/1 30/2/1 31/3/1 32/4/1
f 33/2/1 34/9/1 35/10/1 36/3/1
f 37/11/1 38/12/1 39/9/1 40/2/1
f 41/2/1 42/9/1 43/10/1 44/3/1
f 45/11/1 46/12/1 47/9/1 48/2/1
f 49/5/1 50/1/1 51/4/1 52/6/1
f 53/1/1 54/2/1 55/3/1 56/4/1
f 57/8/1 58/11/1 59/2/1 60/1/1
f 61/5/1 62/1/1 63/4/1 64/6/1
f 65/2/1 66/9/1 67/10/1 68/3/1
f 69/8/1 70/11/1 71/2/1 72/1/1
f 73/7/1 74/8/1 75/1/1 76/5/1
f 77/11/1 78/12/1 79/9/1 80/2/1
f 81/8/1 82/11/1 83/2/1 84/1/1
f 85/5/1 86/1/1 87/4/1 88/6/1
f 89/5/1 90/1/1 91/4/1 92/6/1
f 93/11/1 94/12/1 95/9/1 96/2/1
f 97/7/1 98/8/1 99/1/1 100/5/1
f 101/8/1 102/11/1 103/2/1 104/1/1
f 105/8/1 106/11/1 107/2/1 108/1/1
f 109/1/1 110/2/1 111/3/1 112/4/1
f 113/11/1 114/12/1 115/9/1 116/2/1
f 117/1/1 118/2/1 119/3/1 120/4/1
f 121/5/1 122/1/1 123/4/1 124/6/1
f 125/11/1 126/12/1 127/9/1 128/2/1
f 129/7/1 130/8/1 131/1/1 132/5/1
f 133/5/1 134/1/1 135/4/1 136/6/1
f 137/7/1 138/8/1 139/1/1 140/5/1
f 141/11/1 142/12/1 143/9/1 144/2/1
f 145/8/1 146/11/1 147/2/1 148/1/1
f 149/7/1 150/8/1 151/1/1 152/5/1
f 153/8/1 154/11/1 155/2/1 156/1/1
f 157/7/1 158/8/1 159/1/1 160/5/1
f 161/11/1 162/12/1 163/9/1 164/2/1
f 165/5/1 166/1/1 167/4/1 168/6/1
f 169/7/1 170/8/1 171/1/1 172/5/1
f 173/5/1 174/1/1 175/4/1 176/6/1
f 177/8/1 178/11/1 179/2/1 180/1/1
f 181/5/1 182/1/1 183/4/1 184/6/1
f 185/11/1 186/12/1 187/9/1 188/2/1
f 189/2/1 190/9/1 191/10/1 192/3/1
f 193/1/1 194/2/1 195/3/1 196/4/1
f 197/11/1 198/12/1 199/9/1 200/2/1
f 201/1/1 202/2/1 203/3/1 204/4/1
f 205/8/1 206/11/1 207/2/1 208/1/1
f 209/11/1 210/12/1 211/9/1 212/2/1

